<svg width="512" height="512" viewBox="0 0 512 512" fill="none" xmlns="http://www.w3.org/2000/svg">
<rect width="512" height="512" rx="64" fill="#9BE52E"/>
<path d="M139.3 311.24C130.767 311.24 123.193 309.587 116.58 306.28C110.073 302.973 104.953 298.013 101.22 291.4C97.4867 284.787 95.62 276.52 95.62 266.6C95.62 256.68 97.4867 248.467 101.22 241.96C104.953 235.347 110.127 230.44 116.74 227.24C123.353 223.933 130.927 222.28 139.46 222.28C147.993 222.28 155.567 223.933 162.18 227.24C168.793 230.547 173.967 235.507 177.7 242.12C181.433 248.627 183.3 256.84 183.3 266.76C183.3 276.893 181.38 285.267 177.54 291.88C173.7 298.493 168.42 303.4 161.7 306.6C155.087 309.693 147.62 311.24 139.3 311.24ZM140.1 292.52C143.94 292.52 147.14 291.667 149.7 289.96C152.26 288.147 154.18 285.427 155.46 281.8C156.74 278.173 157.38 273.693 157.38 268.36C157.38 262.707 156.687 257.96 155.3 254.12C153.913 250.173 151.833 247.187 149.06 245.16C146.393 243.027 142.927 241.96 138.66 241.96C135.033 241.96 131.887 242.867 129.22 244.68C126.66 246.387 124.74 249.053 123.46 252.68C122.18 256.307 121.54 260.84 121.54 266.28C121.54 275.027 123.14 281.587 126.34 285.96C129.647 290.333 134.233 292.52 140.1 292.52ZM210.4 309L189.92 224.52H216.8L227.2 288.84H230.4L243.36 224.52H273.92L287.36 288.84H290.72L300.64 224.52H327.04L306.56 309H271.04L259.36 245.32H256.32L245.44 309H210.4ZM378.236 311.24C371.196 311.24 364.903 310.333 359.356 308.52C353.81 306.6 349.063 303.827 345.116 300.2C341.276 296.573 338.343 292.093 336.316 286.76C334.29 281.427 333.276 275.293 333.276 268.36C333.276 261.64 334.236 255.453 336.156 249.8C338.183 244.147 341.01 239.293 344.636 235.24C348.37 231.08 352.903 227.88 358.236 225.64C363.676 223.4 369.756 222.28 376.476 222.28C383.303 222.28 389.276 223.4 394.396 225.64C399.623 227.773 403.89 230.973 407.196 235.24C410.61 239.507 413.116 244.733 414.716 250.92C416.316 257 416.85 263.987 416.316 271.88L350.236 272.36V258.92L401.596 258.44L392.476 264.68C393.223 259.347 392.903 255.027 391.516 251.72C390.13 248.307 388.103 245.853 385.436 244.36C382.77 242.76 379.89 241.96 376.796 241.96C373.063 241.96 369.756 242.973 366.876 245C364.103 247.027 361.916 249.96 360.316 253.8C358.716 257.64 357.916 262.333 357.916 267.88C357.916 276.627 359.783 282.973 363.516 286.92C367.356 290.867 372.21 292.84 378.076 292.84C380.956 292.84 383.356 292.467 385.276 291.72C387.196 290.867 388.743 289.853 389.916 288.68C391.196 287.4 392.156 286.013 392.796 284.52C393.543 283.027 394.13 281.587 394.556 280.2L416.956 285C416.103 288.947 414.716 292.52 412.796 295.72C410.983 298.92 408.476 301.693 405.276 304.04C402.183 306.387 398.396 308.147 393.916 309.32C389.543 310.6 384.316 311.24 378.236 311.24Z" fill="black"/>
</svg>
